<svg xmlns="http://www.w3.org/2000/svg" width="240" height="400" viewBox="0 0 240 400">
  <path d="M12,394 C12,340.0 50,322.0 84,328.0 C104,332.0 136,332.0 156,328.0 C190,322.0 228,340.0 228,394 Z" fill="#5CA150" stroke="#4A3F3A" stroke-width="10" stroke-linejoin="round"></path>
  <path d="M78,66 C68.0,198.0 82.0,302.0 72.0,338.0 L168.0,338.0 C158.0,302.0 172.0,198.0 162,66 Z" fill="#7FC072" stroke="#4A3F3A" stroke-width="10" stroke-linejoin="round"></path>
  <path d="M96.0,80.0 C88.0,198.0 98.0,306.0 92.0,326.0" fill="none" stroke="#A5D69A" stroke-width="15" stroke-linecap="round"></path>
  <path d="M28,16 L212,16 C224,34.0 212,74 186,80.0 C160,86.0 80,86.0 54,80.0 C28,74 16,34.0 28,16 Z" fill="#7FC072" stroke="#4A3F3A" stroke-width="10" stroke-linejoin="round"></path>
  <path d="M44,24.0 L196,24.0 C204,38.0 196,50.0 176,52.0 C150,56.0 90,56.0 64,52.0 C44,50.0 36,38.0 44,24.0 Z" fill="#A5D69A"></path>
  <circle cx="26" cy="76.0" r="15" fill="#5CA150" stroke="#4A3F3A" stroke-width="9"></circle>
  <circle cx="214" cy="76.0" r="15" fill="#5CA150" stroke="#4A3F3A" stroke-width="9"></circle>
  <circle cx="62.0" cy="208.0" r="13" fill="#5CA150" stroke="#4A3F3A" stroke-width="9"></circle>
  <circle cx="178.0" cy="174.0" r="11" fill="#5CA150" stroke="#4A3F3A" stroke-width="9"></circle>
</svg>