<svg xmlns="http://www.w3.org/2000/svg" width="1600" height="520" viewBox="0 0 1600 520">
  <path d="M90.0,183.6 Q134.7,172.1 179.4,172.2" fill="none" stroke="#A9E2EC" stroke-width="6" stroke-linecap="round" stroke-opacity="0.600"></path>
  <path d="M179.4,172.2 Q224.1,168.6 268.8,172.2" fill="none" stroke="#A9E2EC" stroke-width="6" stroke-linecap="round" stroke-opacity="0.600"></path>
  <path d="M268.8,172.2 Q313.4,171.9 358.1,176.2" fill="none" stroke="#A9E2EC" stroke-width="6" stroke-linecap="round" stroke-opacity="0.600"></path>
  <path d="M358.1,176.2 Q402.8,179.5 447.5,181.3" fill="none" stroke="#A9E2EC" stroke-width="6" stroke-linecap="round" stroke-opacity="0.600"></path>
  <path d="M447.5,181.3 Q492.2,185.7 536.9,183.6" fill="none" stroke="#A9E2EC" stroke-width="6" stroke-linecap="round" stroke-opacity="0.600"></path>
  <path d="M536.9,183.6 Q581.6,185.7 626.3,181.4" fill="none" stroke="#A9E2EC" stroke-width="6" stroke-linecap="round" stroke-opacity="0.600"></path>
  <path d="M626.3,181.4 Q670.9,179.6 715.6,176.3" fill="none" stroke="#A9E2EC" stroke-width="6" stroke-linecap="round" stroke-opacity="0.600"></path>
  <path d="M715.6,176.3 Q760.3,172.0 805.0,172.2" fill="none" stroke="#A9E2EC" stroke-width="6" stroke-linecap="round" stroke-opacity="0.600"></path>
  <path d="M805.0,172.2 Q849.7,168.6 894.4,172.2" fill="none" stroke="#A9E2EC" stroke-width="6" stroke-linecap="round" stroke-opacity="0.600"></path>
  <path d="M894.4,172.2 Q939.1,172.0 983.8,176.3" fill="none" stroke="#A9E2EC" stroke-width="6" stroke-linecap="round" stroke-opacity="0.525"></path>
  <path d="M983.8,176.3 Q1028.4,179.7 1073.1,181.4" fill="none" stroke="#A9E2EC" stroke-width="6" stroke-linecap="round" stroke-opacity="0.450"></path>
  <path d="M1073.1,181.4 Q1117.8,185.7 1162.5,183.6" fill="none" stroke="#A9E2EC" stroke-width="6" stroke-linecap="round" stroke-opacity="0.375"></path>
  <path d="M1162.5,183.6 Q1207.2,185.7 1251.9,181.3" fill="none" stroke="#A9E2EC" stroke-width="6" stroke-linecap="round" stroke-opacity="0.300"></path>
  <path d="M1251.9,181.3 Q1296.6,179.5 1341.3,176.2" fill="none" stroke="#A9E2EC" stroke-width="6" stroke-linecap="round" stroke-opacity="0.225"></path>
  <path d="M1341.3,176.2 Q1385.9,171.9 1430.6,172.2" fill="none" stroke="#A9E2EC" stroke-width="6" stroke-linecap="round" stroke-opacity="0.150"></path>
  <path d="M1430.6,172.2 Q1475.3,168.6 1520.0,172.2" fill="none" stroke="#A9E2EC" stroke-width="6" stroke-linecap="round" stroke-opacity="0.075"></path>
  <path d="M90.0,221.5 Q134.7,207.8 179.4,209.5" fill="none" stroke="#A9E2EC" stroke-width="6" stroke-linecap="round" stroke-opacity="0.600"></path>
  <path d="M179.4,209.5 Q224.1,207.1 268.8,211.4" fill="none" stroke="#A9E2EC" stroke-width="6" stroke-linecap="round" stroke-opacity="0.600"></path>
  <path d="M268.8,211.4 Q313.4,212.8 358.1,216.4" fill="none" stroke="#A9E2EC" stroke-width="6" stroke-linecap="round" stroke-opacity="0.600"></path>
  <path d="M358.1,216.4 Q402.8,220.5 447.5,220.7" fill="none" stroke="#A9E2EC" stroke-width="6" stroke-linecap="round" stroke-opacity="0.600"></path>
  <path d="M447.5,220.7 Q492.2,224.5 536.9,221.1" fill="none" stroke="#A9E2EC" stroke-width="6" stroke-linecap="round" stroke-opacity="0.600"></path>
  <path d="M536.9,221.1 Q581.6,221.6 626.3,217.3" fill="none" stroke="#A9E2EC" stroke-width="6" stroke-linecap="round" stroke-opacity="0.600"></path>
  <path d="M626.3,217.3 Q670.9,214.1 715.6,212.1" fill="none" stroke="#A9E2EC" stroke-width="6" stroke-linecap="round" stroke-opacity="0.600"></path>
  <path d="M715.6,212.1 Q760.3,207.7 805.0,209.5" fill="none" stroke="#A9E2EC" stroke-width="6" stroke-linecap="round" stroke-opacity="0.600"></path>
  <path d="M805.0,209.5 Q849.7,207.1 894.4,211.5" fill="none" stroke="#A9E2EC" stroke-width="6" stroke-linecap="round" stroke-opacity="0.600"></path>
  <path d="M894.4,211.5 Q939.1,212.9 983.8,216.5" fill="none" stroke="#A9E2EC" stroke-width="6" stroke-linecap="round" stroke-opacity="0.525"></path>
  <path d="M983.8,216.5 Q1028.4,220.7 1073.1,220.7" fill="none" stroke="#A9E2EC" stroke-width="6" stroke-linecap="round" stroke-opacity="0.450"></path>
  <path d="M1073.1,220.7 Q1117.8,224.5 1162.5,221.1" fill="none" stroke="#A9E2EC" stroke-width="6" stroke-linecap="round" stroke-opacity="0.375"></path>
  <path d="M1162.5,221.1 Q1207.2,221.5 1251.9,217.2" fill="none" stroke="#A9E2EC" stroke-width="6" stroke-linecap="round" stroke-opacity="0.300"></path>
  <path d="M1251.9,217.2 Q1296.6,214.0 1341.3,212.0" fill="none" stroke="#A9E2EC" stroke-width="6" stroke-linecap="round" stroke-opacity="0.225"></path>
  <path d="M1341.3,212.0 Q1385.9,207.6 1430.6,209.5" fill="none" stroke="#A9E2EC" stroke-width="6" stroke-linecap="round" stroke-opacity="0.150"></path>
  <path d="M1430.6,209.5 Q1475.3,207.2 1520.0,211.5" fill="none" stroke="#A9E2EC" stroke-width="6" stroke-linecap="round" stroke-opacity="0.075"></path>
  <path d="M90.0,260.2 Q134.7,245.3 179.4,248.5" fill="none" stroke="#A9E2EC" stroke-width="6" stroke-linecap="round" stroke-opacity="0.600"></path>
  <path d="M179.4,248.5 Q224.1,247.6 268.8,252.0" fill="none" stroke="#A9E2EC" stroke-width="6" stroke-linecap="round" stroke-opacity="0.600"></path>
  <path d="M268.8,252.0 Q313.4,254.9 358.1,257.2" fill="none" stroke="#A9E2EC" stroke-width="6" stroke-linecap="round" stroke-opacity="0.600"></path>
  <path d="M358.1,257.2 Q402.8,261.7 447.5,260.1" fill="none" stroke="#A9E2EC" stroke-width="6" stroke-linecap="round" stroke-opacity="0.600"></path>
  <path d="M447.5,260.1 Q492.2,262.8 536.9,258.6" fill="none" stroke="#A9E2EC" stroke-width="6" stroke-linecap="round" stroke-opacity="0.600"></path>
  <path d="M536.9,258.6 Q581.6,257.4 626.3,253.7" fill="none" stroke="#A9E2EC" stroke-width="6" stroke-linecap="round" stroke-opacity="0.600"></path>
  <path d="M626.3,253.7 Q670.9,249.6 715.6,249.2" fill="none" stroke="#A9E2EC" stroke-width="6" stroke-linecap="round" stroke-opacity="0.600"></path>
  <path d="M715.6,249.2 Q760.3,245.3 805.0,248.5" fill="none" stroke="#A9E2EC" stroke-width="6" stroke-linecap="round" stroke-opacity="0.600"></path>
  <path d="M805.0,248.5 Q849.7,247.7 894.4,252.1" fill="none" stroke="#A9E2EC" stroke-width="6" stroke-linecap="round" stroke-opacity="0.600"></path>
  <path d="M894.4,252.1 Q939.1,255.1 983.8,257.3" fill="none" stroke="#A9E2EC" stroke-width="6" stroke-linecap="round" stroke-opacity="0.525"></path>
  <path d="M983.8,257.3 Q1028.4,261.8 1073.1,260.2" fill="none" stroke="#A9E2EC" stroke-width="6" stroke-linecap="round" stroke-opacity="0.450"></path>
  <path d="M1073.1,260.2 Q1117.8,262.7 1162.5,258.5" fill="none" stroke="#A9E2EC" stroke-width="6" stroke-linecap="round" stroke-opacity="0.375"></path>
  <path d="M1162.5,258.5 Q1207.2,257.2 1251.9,253.6" fill="none" stroke="#A9E2EC" stroke-width="6" stroke-linecap="round" stroke-opacity="0.300"></path>
  <path d="M1251.9,253.6 Q1296.6,249.5 1341.3,249.1" fill="none" stroke="#A9E2EC" stroke-width="6" stroke-linecap="round" stroke-opacity="0.225"></path>
  <path d="M1341.3,249.1 Q1385.9,245.3 1430.6,248.5" fill="none" stroke="#A9E2EC" stroke-width="6" stroke-linecap="round" stroke-opacity="0.150"></path>
  <path d="M1430.6,248.5 Q1475.3,247.8 1520.0,252.2" fill="none" stroke="#A9E2EC" stroke-width="6" stroke-linecap="round" stroke-opacity="0.075"></path>
  <path d="M90.0,301.0 Q134.7,286.3 179.4,290.4" fill="none" stroke="#A9E2EC" stroke-width="6" stroke-linecap="round" stroke-opacity="0.600"></path>
  <path d="M179.4,290.4 Q224.1,291.4 268.8,295.2" fill="none" stroke="#A9E2EC" stroke-width="6" stroke-linecap="round" stroke-opacity="0.600"></path>
  <path d="M268.8,295.2 Q313.4,299.2 358.1,299.8" fill="none" stroke="#A9E2EC" stroke-width="6" stroke-linecap="round" stroke-opacity="0.600"></path>
  <path d="M358.1,299.8 Q402.8,303.8 447.5,300.8" fill="none" stroke="#A9E2EC" stroke-width="6" stroke-linecap="round" stroke-opacity="0.600"></path>
  <path d="M447.5,300.8 Q492.2,301.8 536.9,297.4" fill="none" stroke="#A9E2EC" stroke-width="6" stroke-linecap="round" stroke-opacity="0.600"></path>
  <path d="M536.9,297.4 Q581.6,294.6 626.3,292.1" fill="none" stroke="#A9E2EC" stroke-width="6" stroke-linecap="round" stroke-opacity="0.600"></path>
  <path d="M626.3,292.1 Q670.9,287.7 715.6,289.1" fill="none" stroke="#A9E2EC" stroke-width="6" stroke-linecap="round" stroke-opacity="0.600"></path>
  <path d="M715.6,289.1 Q760.3,286.3 805.0,290.5" fill="none" stroke="#A9E2EC" stroke-width="6" stroke-linecap="round" stroke-opacity="0.600"></path>
  <path d="M805.0,290.5 Q849.7,291.5 894.4,295.3" fill="none" stroke="#A9E2EC" stroke-width="6" stroke-linecap="round" stroke-opacity="0.600"></path>
  <path d="M894.4,295.3 Q939.1,299.3 983.8,299.9" fill="none" stroke="#A9E2EC" stroke-width="6" stroke-linecap="round" stroke-opacity="0.525"></path>
  <path d="M983.8,299.9 Q1028.4,303.9 1073.1,300.8" fill="none" stroke="#A9E2EC" stroke-width="6" stroke-linecap="round" stroke-opacity="0.450"></path>
  <path d="M1073.1,300.8 Q1117.8,301.7 1162.5,297.3" fill="none" stroke="#A9E2EC" stroke-width="6" stroke-linecap="round" stroke-opacity="0.375"></path>
  <path d="M1162.5,297.3 Q1207.2,294.4 1251.9,292.1" fill="none" stroke="#A9E2EC" stroke-width="6" stroke-linecap="round" stroke-opacity="0.300"></path>
  <path d="M1251.9,292.1 Q1296.6,287.6 1341.3,289.1" fill="none" stroke="#A9E2EC" stroke-width="6" stroke-linecap="round" stroke-opacity="0.225"></path>
  <path d="M1341.3,289.1 Q1385.9,286.4 1430.6,290.6" fill="none" stroke="#A9E2EC" stroke-width="6" stroke-linecap="round" stroke-opacity="0.150"></path>
  <path d="M1430.6,290.6 Q1475.3,291.7 1520.0,295.4" fill="none" stroke="#A9E2EC" stroke-width="6" stroke-linecap="round" stroke-opacity="0.075"></path>
  <path d="M90.0,344.2 Q134.7,331.3 179.4,335.7" fill="none" stroke="#A9E2EC" stroke-width="6" stroke-linecap="round" stroke-opacity="0.600"></path>
  <path d="M179.4,335.7 Q224.1,338.4 268.8,340.9" fill="none" stroke="#A9E2EC" stroke-width="6" stroke-linecap="round" stroke-opacity="0.600"></path>
  <path d="M268.8,340.9 Q313.4,345.4 358.1,344.1" fill="none" stroke="#A9E2EC" stroke-width="6" stroke-linecap="round" stroke-opacity="0.600"></path>
  <path d="M358.1,344.1 Q402.8,346.9 447.5,342.8" fill="none" stroke="#A9E2EC" stroke-width="6" stroke-linecap="round" stroke-opacity="0.600"></path>
  <path d="M447.5,342.8 Q492.2,341.9 536.9,338.0" fill="none" stroke="#A9E2EC" stroke-width="6" stroke-linecap="round" stroke-opacity="0.600"></path>
  <path d="M536.9,338.0 Q581.6,334.1 626.3,333.4" fill="none" stroke="#A9E2EC" stroke-width="6" stroke-linecap="round" stroke-opacity="0.600"></path>
  <path d="M626.3,333.4 Q670.9,329.4 715.6,332.4" fill="none" stroke="#A9E2EC" stroke-width="6" stroke-linecap="round" stroke-opacity="0.600"></path>
  <path d="M715.6,332.4 Q760.3,331.4 805.0,335.8" fill="none" stroke="#A9E2EC" stroke-width="6" stroke-linecap="round" stroke-opacity="0.600"></path>
  <path d="M805.0,335.8 Q849.7,338.5 894.4,341.0" fill="none" stroke="#A9E2EC" stroke-width="6" stroke-linecap="round" stroke-opacity="0.600"></path>
  <path d="M894.4,341.0 Q939.1,345.4 983.8,344.1" fill="none" stroke="#A9E2EC" stroke-width="6" stroke-linecap="round" stroke-opacity="0.525"></path>
  <path d="M983.8,344.1 Q1028.4,346.9 1073.1,342.7" fill="none" stroke="#A9E2EC" stroke-width="6" stroke-linecap="round" stroke-opacity="0.450"></path>
  <path d="M1073.1,342.7 Q1117.8,341.7 1162.5,337.9" fill="none" stroke="#A9E2EC" stroke-width="6" stroke-linecap="round" stroke-opacity="0.375"></path>
  <path d="M1162.5,337.9 Q1207.2,333.9 1251.9,333.3" fill="none" stroke="#A9E2EC" stroke-width="6" stroke-linecap="round" stroke-opacity="0.300"></path>
  <path d="M1251.9,333.3 Q1296.6,329.3 1341.3,332.4" fill="none" stroke="#A9E2EC" stroke-width="6" stroke-linecap="round" stroke-opacity="0.225"></path>
  <path d="M1341.3,332.4 Q1385.9,331.5 1430.6,335.9" fill="none" stroke="#A9E2EC" stroke-width="6" stroke-linecap="round" stroke-opacity="0.150"></path>
  <path d="M1430.6,335.9 Q1475.3,338.7 1520.0,341.1" fill="none" stroke="#A9E2EC" stroke-width="6" stroke-linecap="round" stroke-opacity="0.075"></path>
  <g transform="translate(0 5.0) rotate(1.70 172 288)">
    <g stroke="#CFF0F7" stroke-width="13" stroke-linecap="round" fill="none" stroke-opacity="0.9">
      <path d="M150,388 C186,384 206,356 202,318 C198,280 172,258 158,232 C142,204 148,168 172,152 C194,138 214,152 214,180 C214,214 194,246 172,272 C150,298 138,330 144,358 C150,386 176,398 196,388"></path>
      <path d="M186,132 C186,180 186,300 186,372 C186,404 172,420 152,420 C136,420 126,410 128,398"></path>
    </g>
    <circle cx="130" cy="402" r="15" fill="#CFF0F7" fill-opacity="0.9"></circle>
  </g>
  <g transform="translate(0 16.0) rotate(8.25 360 302)">
    <ellipse cx="360" cy="302" rx="23" ry="18" fill="#CFF0F7" fill-opacity="0.9" transform="rotate(-18 360 302)"></ellipse>
    <path d="M380,302 L380,228" fill="none" stroke="#CFF0F7" stroke-width="10" stroke-linecap="round" stroke-opacity="0.9"></path>
  </g>
  <g transform="translate(0 0.0) rotate(-5.65 520 218)">
    <ellipse cx="520" cy="218" rx="23" ry="18" fill="#CFF0F7" fill-opacity="0.9" transform="rotate(-18 520 218)"></ellipse>
    <path d="M540,218 L540,144" fill="none" stroke="#CFF0F7" stroke-width="10" stroke-linecap="round" stroke-opacity="0.9"></path>
    <path d="M540,144 C570,152 578,170 570,186" fill="none" stroke="#CFF0F7" stroke-width="10" stroke-linecap="round" stroke-opacity="0.9"></path>
  </g>
  <g transform="translate(0 -14.0) rotate(-8.25 690 260)">
    <ellipse cx="690" cy="260" rx="23" ry="18" fill="#CFF0F7" fill-opacity="0.9" transform="rotate(-18 690 260)"></ellipse>
    <path d="M710,260 L710,186" fill="none" stroke="#CFF0F7" stroke-width="10" stroke-linecap="round" stroke-opacity="0.9"></path>
  </g>
  <g transform="translate(0 -0.0) rotate(5.65 860 176)">
    <ellipse cx="860" cy="176" rx="23" ry="18" fill="#CFF0F7" fill-opacity="0.9" transform="rotate(-18 860 176)"></ellipse>
    <path d="M840,176 L840,250" fill="none" stroke="#CFF0F7" stroke-width="10" stroke-linecap="round" stroke-opacity="0.9"></path>
  </g>
  <g transform="translate(0 12.1) rotate(3.36 1010 302)">
    <ellipse cx="1010" cy="302" rx="23" ry="18" fill="#CFF0F7" fill-opacity="0.9" transform="rotate(-18 1010 302)"></ellipse>
    <path d="M1030,302 L1030,228" fill="none" stroke="#CFF0F7" stroke-width="10" stroke-linecap="round" stroke-opacity="0.9"></path>
    <path d="M1030,228 C1060,236 1068,254 1060,270" fill="none" stroke="#CFF0F7" stroke-width="10" stroke-linecap="round" stroke-opacity="0.9"></path>
  </g>
  <circle cx="1180" cy="267.5" r="13" fill="#CFF0F7" fill-opacity="0.440"></circle>
  <circle cx="1250" cy="227.2" r="9" fill="#CFF0F7" fill-opacity="0.428"></circle>
  <circle cx="1320" cy="186.9" r="7" fill="#CFF0F7" fill-opacity="0.246"></circle>
</svg>