<svg xmlns="http://www.w3.org/2000/svg" width="1600" height="520" viewBox="0 0 1600 520">
  <path d="M90.0,171.6 Q134.7,183.1 179.4,183.0" fill="none" stroke="#A9E2EC" stroke-width="6" stroke-linecap="round" stroke-opacity="0.600"></path>
  <path d="M179.4,183.0 Q224.1,186.6 268.8,183.0" fill="none" stroke="#A9E2EC" stroke-width="6" stroke-linecap="round" stroke-opacity="0.600"></path>
  <path d="M268.8,183.0 Q313.4,183.3 358.1,179.0" fill="none" stroke="#A9E2EC" stroke-width="6" stroke-linecap="round" stroke-opacity="0.600"></path>
  <path d="M358.1,179.0 Q402.8,175.7 447.5,173.9" fill="none" stroke="#A9E2EC" stroke-width="6" stroke-linecap="round" stroke-opacity="0.600"></path>
  <path d="M447.5,173.9 Q492.2,169.5 536.9,171.6" fill="none" stroke="#A9E2EC" stroke-width="6" stroke-linecap="round" stroke-opacity="0.600"></path>
  <path d="M536.9,171.6 Q581.6,169.5 626.3,173.8" fill="none" stroke="#A9E2EC" stroke-width="6" stroke-linecap="round" stroke-opacity="0.600"></path>
  <path d="M626.3,173.8 Q670.9,175.6 715.6,178.9" fill="none" stroke="#A9E2EC" stroke-width="6" stroke-linecap="round" stroke-opacity="0.600"></path>
  <path d="M715.6,178.9 Q760.3,183.2 805.0,183.0" fill="none" stroke="#A9E2EC" stroke-width="6" stroke-linecap="round" stroke-opacity="0.600"></path>
  <path d="M805.0,183.0 Q849.7,186.6 894.4,183.0" fill="none" stroke="#A9E2EC" stroke-width="6" stroke-linecap="round" stroke-opacity="0.600"></path>
  <path d="M894.4,183.0 Q939.1,183.2 983.8,178.9" fill="none" stroke="#A9E2EC" stroke-width="6" stroke-linecap="round" stroke-opacity="0.525"></path>
  <path d="M983.8,178.9 Q1028.4,175.5 1073.1,173.8" fill="none" stroke="#A9E2EC" stroke-width="6" stroke-linecap="round" stroke-opacity="0.450"></path>
  <path d="M1073.1,173.8 Q1117.8,169.5 1162.5,171.6" fill="none" stroke="#A9E2EC" stroke-width="6" stroke-linecap="round" stroke-opacity="0.375"></path>
  <path d="M1162.5,171.6 Q1207.2,169.5 1251.9,173.9" fill="none" stroke="#A9E2EC" stroke-width="6" stroke-linecap="round" stroke-opacity="0.300"></path>
  <path d="M1251.9,173.9 Q1296.6,175.7 1341.3,179.0" fill="none" stroke="#A9E2EC" stroke-width="6" stroke-linecap="round" stroke-opacity="0.225"></path>
  <path d="M1341.3,179.0 Q1385.9,183.3 1430.6,183.0" fill="none" stroke="#A9E2EC" stroke-width="6" stroke-linecap="round" stroke-opacity="0.150"></path>
  <path d="M1430.6,183.0 Q1475.3,186.6 1520.0,183.0" fill="none" stroke="#A9E2EC" stroke-width="6" stroke-linecap="round" stroke-opacity="0.075"></path>
  <path d="M90.0,209.5 Q134.7,223.2 179.4,221.5" fill="none" stroke="#A9E2EC" stroke-width="6" stroke-linecap="round" stroke-opacity="0.600"></path>
  <path d="M179.4,221.5 Q224.1,223.9 268.8,219.6" fill="none" stroke="#A9E2EC" stroke-width="6" stroke-linecap="round" stroke-opacity="0.600"></path>
  <path d="M268.8,219.6 Q313.4,218.2 358.1,214.6" fill="none" stroke="#A9E2EC" stroke-width="6" stroke-linecap="round" stroke-opacity="0.600"></path>
  <path d="M358.1,214.6 Q402.8,210.5 447.5,210.3" fill="none" stroke="#A9E2EC" stroke-width="6" stroke-linecap="round" stroke-opacity="0.600"></path>
  <path d="M447.5,210.3 Q492.2,206.5 536.9,209.9" fill="none" stroke="#A9E2EC" stroke-width="6" stroke-linecap="round" stroke-opacity="0.600"></path>
  <path d="M536.9,209.9 Q581.6,209.4 626.3,213.7" fill="none" stroke="#A9E2EC" stroke-width="6" stroke-linecap="round" stroke-opacity="0.600"></path>
  <path d="M626.3,213.7 Q670.9,216.9 715.6,218.9" fill="none" stroke="#A9E2EC" stroke-width="6" stroke-linecap="round" stroke-opacity="0.600"></path>
  <path d="M715.6,218.9 Q760.3,223.3 805.0,221.5" fill="none" stroke="#A9E2EC" stroke-width="6" stroke-linecap="round" stroke-opacity="0.600"></path>
  <path d="M805.0,221.5 Q849.7,223.9 894.4,219.5" fill="none" stroke="#A9E2EC" stroke-width="6" stroke-linecap="round" stroke-opacity="0.600"></path>
  <path d="M894.4,219.5 Q939.1,218.1 983.8,214.5" fill="none" stroke="#A9E2EC" stroke-width="6" stroke-linecap="round" stroke-opacity="0.525"></path>
  <path d="M983.8,214.5 Q1028.4,210.3 1073.1,210.3" fill="none" stroke="#A9E2EC" stroke-width="6" stroke-linecap="round" stroke-opacity="0.450"></path>
  <path d="M1073.1,210.3 Q1117.8,206.5 1162.5,209.9" fill="none" stroke="#A9E2EC" stroke-width="6" stroke-linecap="round" stroke-opacity="0.375"></path>
  <path d="M1162.5,209.9 Q1207.2,209.5 1251.9,213.8" fill="none" stroke="#A9E2EC" stroke-width="6" stroke-linecap="round" stroke-opacity="0.300"></path>
  <path d="M1251.9,213.8 Q1296.6,217.0 1341.3,219.0" fill="none" stroke="#A9E2EC" stroke-width="6" stroke-linecap="round" stroke-opacity="0.225"></path>
  <path d="M1341.3,219.0 Q1385.9,223.4 1430.6,221.5" fill="none" stroke="#A9E2EC" stroke-width="6" stroke-linecap="round" stroke-opacity="0.150"></path>
  <path d="M1430.6,221.5 Q1475.3,223.8 1520.0,219.5" fill="none" stroke="#A9E2EC" stroke-width="6" stroke-linecap="round" stroke-opacity="0.075"></path>
  <path d="M90.0,248.2 Q134.7,263.1 179.4,259.9" fill="none" stroke="#A9E2EC" stroke-width="6" stroke-linecap="round" stroke-opacity="0.600"></path>
  <path d="M179.4,259.9 Q224.1,260.8 268.8,256.4" fill="none" stroke="#A9E2EC" stroke-width="6" stroke-linecap="round" stroke-opacity="0.600"></path>
  <path d="M268.8,256.4 Q313.4,253.5 358.1,251.2" fill="none" stroke="#A9E2EC" stroke-width="6" stroke-linecap="round" stroke-opacity="0.600"></path>
  <path d="M358.1,251.2 Q402.8,246.7 447.5,248.3" fill="none" stroke="#A9E2EC" stroke-width="6" stroke-linecap="round" stroke-opacity="0.600"></path>
  <path d="M447.5,248.3 Q492.2,245.6 536.9,249.8" fill="none" stroke="#A9E2EC" stroke-width="6" stroke-linecap="round" stroke-opacity="0.600"></path>
  <path d="M536.9,249.8 Q581.6,251.0 626.3,254.7" fill="none" stroke="#A9E2EC" stroke-width="6" stroke-linecap="round" stroke-opacity="0.600"></path>
  <path d="M626.3,254.7 Q670.9,258.8 715.6,259.2" fill="none" stroke="#A9E2EC" stroke-width="6" stroke-linecap="round" stroke-opacity="0.600"></path>
  <path d="M715.6,259.2 Q760.3,263.1 805.0,259.9" fill="none" stroke="#A9E2EC" stroke-width="6" stroke-linecap="round" stroke-opacity="0.600"></path>
  <path d="M805.0,259.9 Q849.7,260.7 894.4,256.3" fill="none" stroke="#A9E2EC" stroke-width="6" stroke-linecap="round" stroke-opacity="0.600"></path>
  <path d="M894.4,256.3 Q939.1,253.3 983.8,251.1" fill="none" stroke="#A9E2EC" stroke-width="6" stroke-linecap="round" stroke-opacity="0.525"></path>
  <path d="M983.8,251.1 Q1028.4,246.6 1073.1,248.2" fill="none" stroke="#A9E2EC" stroke-width="6" stroke-linecap="round" stroke-opacity="0.450"></path>
  <path d="M1073.1,248.2 Q1117.8,245.7 1162.5,249.9" fill="none" stroke="#A9E2EC" stroke-width="6" stroke-linecap="round" stroke-opacity="0.375"></path>
  <path d="M1162.5,249.9 Q1207.2,251.2 1251.9,254.8" fill="none" stroke="#A9E2EC" stroke-width="6" stroke-linecap="round" stroke-opacity="0.300"></path>
  <path d="M1251.9,254.8 Q1296.6,258.9 1341.3,259.3" fill="none" stroke="#A9E2EC" stroke-width="6" stroke-linecap="round" stroke-opacity="0.225"></path>
  <path d="M1341.3,259.3 Q1385.9,263.1 1430.6,259.9" fill="none" stroke="#A9E2EC" stroke-width="6" stroke-linecap="round" stroke-opacity="0.150"></path>
  <path d="M1430.6,259.9 Q1475.3,260.6 1520.0,256.2" fill="none" stroke="#A9E2EC" stroke-width="6" stroke-linecap="round" stroke-opacity="0.075"></path>
  <path d="M90.0,289.0 Q134.7,303.7 179.4,299.6" fill="none" stroke="#A9E2EC" stroke-width="6" stroke-linecap="round" stroke-opacity="0.600"></path>
  <path d="M179.4,299.6 Q224.1,298.6 268.8,294.8" fill="none" stroke="#A9E2EC" stroke-width="6" stroke-linecap="round" stroke-opacity="0.600"></path>
  <path d="M268.8,294.8 Q313.4,290.8 358.1,290.2" fill="none" stroke="#A9E2EC" stroke-width="6" stroke-linecap="round" stroke-opacity="0.600"></path>
  <path d="M358.1,290.2 Q402.8,286.2 447.5,289.2" fill="none" stroke="#A9E2EC" stroke-width="6" stroke-linecap="round" stroke-opacity="0.600"></path>
  <path d="M447.5,289.2 Q492.2,288.2 536.9,292.6" fill="none" stroke="#A9E2EC" stroke-width="6" stroke-linecap="round" stroke-opacity="0.600"></path>
  <path d="M536.9,292.6 Q581.6,295.4 626.3,297.9" fill="none" stroke="#A9E2EC" stroke-width="6" stroke-linecap="round" stroke-opacity="0.600"></path>
  <path d="M626.3,297.9 Q670.9,302.3 715.6,300.9" fill="none" stroke="#A9E2EC" stroke-width="6" stroke-linecap="round" stroke-opacity="0.600"></path>
  <path d="M715.6,300.9 Q760.3,303.7 805.0,299.5" fill="none" stroke="#A9E2EC" stroke-width="6" stroke-linecap="round" stroke-opacity="0.600"></path>
  <path d="M805.0,299.5 Q849.7,298.5 894.4,294.7" fill="none" stroke="#A9E2EC" stroke-width="6" stroke-linecap="round" stroke-opacity="0.600"></path>
  <path d="M894.4,294.7 Q939.1,290.7 983.8,290.1" fill="none" stroke="#A9E2EC" stroke-width="6" stroke-linecap="round" stroke-opacity="0.525"></path>
  <path d="M983.8,290.1 Q1028.4,286.1 1073.1,289.2" fill="none" stroke="#A9E2EC" stroke-width="6" stroke-linecap="round" stroke-opacity="0.450"></path>
  <path d="M1073.1,289.2 Q1117.8,288.3 1162.5,292.7" fill="none" stroke="#A9E2EC" stroke-width="6" stroke-linecap="round" stroke-opacity="0.375"></path>
  <path d="M1162.5,292.7 Q1207.2,295.6 1251.9,297.9" fill="none" stroke="#A9E2EC" stroke-width="6" stroke-linecap="round" stroke-opacity="0.300"></path>
  <path d="M1251.9,297.9 Q1296.6,302.4 1341.3,300.9" fill="none" stroke="#A9E2EC" stroke-width="6" stroke-linecap="round" stroke-opacity="0.225"></path>
  <path d="M1341.3,300.9 Q1385.9,303.6 1430.6,299.4" fill="none" stroke="#A9E2EC" stroke-width="6" stroke-linecap="round" stroke-opacity="0.150"></path>
  <path d="M1430.6,299.4 Q1475.3,298.3 1520.0,294.6" fill="none" stroke="#A9E2EC" stroke-width="6" stroke-linecap="round" stroke-opacity="0.075"></path>
  <path d="M90.0,332.2 Q134.7,345.1 179.4,340.7" fill="none" stroke="#A9E2EC" stroke-width="6" stroke-linecap="round" stroke-opacity="0.600"></path>
  <path d="M179.4,340.7 Q224.1,338.0 268.8,335.5" fill="none" stroke="#A9E2EC" stroke-width="6" stroke-linecap="round" stroke-opacity="0.600"></path>
  <path d="M268.8,335.5 Q313.4,331.0 358.1,332.3" fill="none" stroke="#A9E2EC" stroke-width="6" stroke-linecap="round" stroke-opacity="0.600"></path>
  <path d="M358.1,332.3 Q402.8,329.5 447.5,333.6" fill="none" stroke="#A9E2EC" stroke-width="6" stroke-linecap="round" stroke-opacity="0.600"></path>
  <path d="M447.5,333.6 Q492.2,334.5 536.9,338.4" fill="none" stroke="#A9E2EC" stroke-width="6" stroke-linecap="round" stroke-opacity="0.600"></path>
  <path d="M536.9,338.4 Q581.6,342.3 626.3,343.0" fill="none" stroke="#A9E2EC" stroke-width="6" stroke-linecap="round" stroke-opacity="0.600"></path>
  <path d="M626.3,343.0 Q670.9,347.0 715.6,344.0" fill="none" stroke="#A9E2EC" stroke-width="6" stroke-linecap="round" stroke-opacity="0.600"></path>
  <path d="M715.6,344.0 Q760.3,345.0 805.0,340.6" fill="none" stroke="#A9E2EC" stroke-width="6" stroke-linecap="round" stroke-opacity="0.600"></path>
  <path d="M805.0,340.6 Q849.7,337.9 894.4,335.4" fill="none" stroke="#A9E2EC" stroke-width="6" stroke-linecap="round" stroke-opacity="0.600"></path>
  <path d="M894.4,335.4 Q939.1,331.0 983.8,332.3" fill="none" stroke="#A9E2EC" stroke-width="6" stroke-linecap="round" stroke-opacity="0.525"></path>
  <path d="M983.8,332.3 Q1028.4,329.5 1073.1,333.7" fill="none" stroke="#A9E2EC" stroke-width="6" stroke-linecap="round" stroke-opacity="0.450"></path>
  <path d="M1073.1,333.7 Q1117.8,334.7 1162.5,338.5" fill="none" stroke="#A9E2EC" stroke-width="6" stroke-linecap="round" stroke-opacity="0.375"></path>
  <path d="M1162.5,338.5 Q1207.2,342.5 1251.9,343.1" fill="none" stroke="#A9E2EC" stroke-width="6" stroke-linecap="round" stroke-opacity="0.300"></path>
  <path d="M1251.9,343.1 Q1296.6,347.1 1341.3,344.0" fill="none" stroke="#A9E2EC" stroke-width="6" stroke-linecap="round" stroke-opacity="0.225"></path>
  <path d="M1341.3,344.0 Q1385.9,344.9 1430.6,340.5" fill="none" stroke="#A9E2EC" stroke-width="6" stroke-linecap="round" stroke-opacity="0.150"></path>
  <path d="M1430.6,340.5 Q1475.3,337.7 1520.0,335.3" fill="none" stroke="#A9E2EC" stroke-width="6" stroke-linecap="round" stroke-opacity="0.075"></path>
  <g transform="translate(0 -5.0) rotate(1.70 172 288)">
    <g stroke="#CFF0F7" stroke-width="13" stroke-linecap="round" fill="none" stroke-opacity="0.9">
      <path d="M150,388 C186,384 206,356 202,318 C198,280 172,258 158,232 C142,204 148,168 172,152 C194,138 214,152 214,180 C214,214 194,246 172,272 C150,298 138,330 144,358 C150,386 176,398 196,388"></path>
      <path d="M186,132 C186,180 186,300 186,372 C186,404 172,420 152,420 C136,420 126,410 128,398"></path>
    </g>
    <circle cx="130" cy="402" r="15" fill="#CFF0F7" fill-opacity="0.9"></circle>
  </g>
  <g transform="translate(0 -16.0) rotate(-8.25 360 302)">
    <ellipse cx="360" cy="302" rx="23" ry="18" fill="#CFF0F7" fill-opacity="0.9" transform="rotate(-18 360 302)"></ellipse>
    <path d="M380,302 L380,228" fill="none" stroke="#CFF0F7" stroke-width="10" stroke-linecap="round" stroke-opacity="0.9"></path>
  </g>
  <g transform="translate(0 -0.0) rotate(5.65 520 218)">
    <ellipse cx="520" cy="218" rx="23" ry="18" fill="#CFF0F7" fill-opacity="0.9" transform="rotate(-18 520 218)"></ellipse>
    <path d="M540,218 L540,144" fill="none" stroke="#CFF0F7" stroke-width="10" stroke-linecap="round" stroke-opacity="0.9"></path>
    <path d="M540,144 C570,152 578,170 570,186" fill="none" stroke="#CFF0F7" stroke-width="10" stroke-linecap="round" stroke-opacity="0.9"></path>
  </g>
  <g transform="translate(0 14.0) rotate(8.25 690 260)">
    <ellipse cx="690" cy="260" rx="23" ry="18" fill="#CFF0F7" fill-opacity="0.9" transform="rotate(-18 690 260)"></ellipse>
    <path d="M710,260 L710,186" fill="none" stroke="#CFF0F7" stroke-width="10" stroke-linecap="round" stroke-opacity="0.9"></path>
  </g>
  <g transform="translate(0 0.0) rotate(-5.65 860 176)">
    <ellipse cx="860" cy="176" rx="23" ry="18" fill="#CFF0F7" fill-opacity="0.9" transform="rotate(-18 860 176)"></ellipse>
    <path d="M840,176 L840,250" fill="none" stroke="#CFF0F7" stroke-width="10" stroke-linecap="round" stroke-opacity="0.9"></path>
  </g>
  <g transform="translate(0 -12.1) rotate(-3.36 1010 302)">
    <ellipse cx="1010" cy="302" rx="23" ry="18" fill="#CFF0F7" fill-opacity="0.9" transform="rotate(-18 1010 302)"></ellipse>
    <path d="M1030,302 L1030,228" fill="none" stroke="#CFF0F7" stroke-width="10" stroke-linecap="round" stroke-opacity="0.9"></path>
    <path d="M1030,228 C1060,236 1068,254 1060,270" fill="none" stroke="#CFF0F7" stroke-width="10" stroke-linecap="round" stroke-opacity="0.9"></path>
  </g>
  <circle cx="1180" cy="202.5" r="13" fill="#CFF0F7" fill-opacity="0.440"></circle>
  <circle cx="1250" cy="292.2" r="9" fill="#CFF0F7" fill-opacity="0.292"></circle>
  <circle cx="1320" cy="251.9" r="7" fill="#CFF0F7" fill-opacity="0.314"></circle>
</svg>