<svg xmlns="http://www.w3.org/2000/svg" width="800" height="680" viewBox="0 -240 800 680">
<path d="M20,410 C110,300 250,166 336,124 C372,106 428,106 464,124 C550,166 690,300 780,410 C560,420 240,420 20,410 Z" fill="#2A2030"></path>
<path d="M336,124 C372,106 428,106 464,124 C550,166 690,300 780,410 C660,416 560,418 470,418 C470,320 430,204 336,124 Z" fill="#372A3D" opacity="0.7"></path>
<path d="M330,130 C368,110 432,110 470,130 C452,150 348,150 330,130 Z" fill="#5A3A3A"></path>
<path d="M344,126 C374,114 426,114 456,126 C438,138 362,138 344,126 Z" fill="#F0913C"></path>
<path d="M398,132 C384,190 372,240 356,292" fill="none" stroke="#F0913C" stroke-width="10" stroke-linecap="round" opacity="0.30"></path>
<path d="M436,134 C450,186 470,232 494,278" fill="none" stroke="#F0913C" stroke-width="8" stroke-linecap="round" opacity="0.22"></path>
<ellipse cx="400" cy="120" rx="69.3" ry="23.9" fill="#F0913C" opacity="0.282"></ellipse>
<g fill="#6A4550" fill-opacity="0.740"><circle cx="440.6" cy="77.5" r="16.9"></circle><circle cx="438.0" cy="88.4" r="23.4"></circle><circle cx="411.3" cy="90.8" r="16.3"></circle><circle cx="388.7" cy="92.1" r="13.9"></circle><circle cx="364.0" cy="88.1" r="7.6"></circle><circle cx="360.4" cy="77.5" r="16.9"></circle><circle cx="373.2" cy="69.5" r="23.4"></circle><circle cx="386.5" cy="60.3" r="16.3"></circle><circle cx="413.4" cy="61.6" r="13.9"></circle><circle cx="428.9" cy="69.2" r="7.6"></circle></g>
<g fill="#6A4550" fill-opacity="0.519"><circle cx="489.8" cy="5.8" r="18.9"></circle><circle cx="449.8" cy="19.1" r="9.6"></circle><circle cx="429.6" cy="37.7" r="10.0"></circle><circle cx="379.6" cy="35.4" r="9.6"></circle><circle cx="344.5" cy="23.0" r="18.3"></circle><circle cx="340.2" cy="5.8" r="18.9"></circle><circle cx="328.7" cy="-16.0" r="9.6"></circle><circle cx="383.4" cy="-19.3" r="10.0"></circle><circle cx="425.9" cy="-21.6" r="9.6"></circle><circle cx="465.5" cy="-12.2" r="18.3"></circle></g>
<g fill="#6A4550" fill-opacity="0.224"><circle cx="478.3" cy="-66.0" r="5.2"></circle><circle cx="489.0" cy="-36.2" r="9.6"></circle><circle cx="421.1" cy="-23.6" r="11.5"></circle><circle cx="356.6" cy="-29.0" r="16.1"></circle><circle cx="298.0" cy="-40.2" r="12.4"></circle><circle cx="259.2" cy="-66.0" r="5.2"></circle><circle cx="311.7" cy="-87.8" r="9.6"></circle><circle cx="353.4" cy="-107.0" r="11.5"></circle><circle cx="424.3" cy="-112.3" r="16.1"></circle><circle cx="475.2" cy="-91.7" r="12.4"></circle></g>
<g fill="#6A4550" fill-opacity="0.78"><circle cx="386.6" cy="110.1" r="16.0"></circle><circle cx="412.0" cy="107.6" r="14.4"></circle><circle cx="400" cy="102.6" r="18.2"></circle></g>
</svg>