<svg xmlns="http://www.w3.org/2000/svg" width="800" height="680" viewBox="0 -240 800 680">
<path d="M20,410 C110,300 250,166 336,124 C372,106 428,106 464,124 C550,166 690,300 780,410 C560,420 240,420 20,410 Z" fill="#2A2030"></path>
<path d="M336,124 C372,106 428,106 464,124 C550,166 690,300 780,410 C660,416 560,418 470,418 C470,320 430,204 336,124 Z" fill="#372A3D" opacity="0.7"></path>
<path d="M330,130 C368,110 432,110 470,130 C452,150 348,150 330,130 Z" fill="#5A3A3A"></path>
<path d="M344,126 C374,114 426,114 456,126 C438,138 362,138 344,126 Z" fill="#F0913C"></path>
<path d="M398,132 C384,190 372,240 356,292" fill="none" stroke="#F0913C" stroke-width="10" stroke-linecap="round" opacity="0.30"></path>
<path d="M436,134 C450,186 470,232 494,278" fill="none" stroke="#F0913C" stroke-width="8" stroke-linecap="round" opacity="0.22"></path>
<ellipse cx="400" cy="120" rx="67.2" ry="23.1" fill="#F0913C" opacity="0.250"></ellipse>
<g fill="#6A4550" fill-opacity="0.780"><circle cx="428.5" cy="101.4" r="16.4"></circle><circle cx="426.4" cy="109.1" r="24.7"></circle><circle cx="408.0" cy="111.3" r="17.6"></circle><circle cx="392.0" cy="111.3" r="15.1"></circle><circle cx="373.6" cy="109.1" r="8.0"></circle><circle cx="371.5" cy="101.4" r="16.4"></circle><circle cx="380.2" cy="95.7" r="24.7"></circle><circle cx="390.4" cy="89.6" r="17.6"></circle><circle cx="409.6" cy="89.6" r="15.1"></circle><circle cx="419.8" cy="95.7" r="8.0"></circle></g>
<g fill="#6A4550" fill-opacity="0.603"><circle cx="477.8" cy="29.7" r="20.7"></circle><circle cx="443.5" cy="41.1" r="10.7"></circle><circle cx="425.4" cy="56.0" r="10.6"></circle><circle cx="383.4" cy="55.1" r="9.8"></circle><circle cx="353.4" cy="44.4" r="18.4"></circle><circle cx="351.3" cy="29.7" r="20.7"></circle><circle cx="341.1" cy="11.4" r="10.7"></circle><circle cx="386.3" cy="7.8" r="10.6"></circle><circle cx="422.5" cy="6.9" r="9.8"></circle><circle cx="455.7" cy="14.7" r="18.4"></circle></g>
<g fill="#6A4550" fill-opacity="0.329"><circle cx="466.6" cy="-42.1" r="5.7"></circle><circle cx="479.6" cy="-15.4" r="9.9"></circle><circle cx="418.5" cy="-4.2" r="11.9"></circle><circle cx="360.2" cy="-8.1" r="16.9"></circle><circle cx="311.8" cy="-20.0" r="14.2"></circle><circle cx="270.7" cy="-42.1" r="5.7"></circle><circle cx="321.1" cy="-61.4" r="9.9"></circle><circle cx="358.0" cy="-78.7" r="11.9"></circle><circle cx="420.7" cy="-82.6" r="16.9"></circle><circle cx="470.3" cy="-66.1" r="14.2"></circle></g>
<g fill="#6A4550" fill-opacity="0.78"><circle cx="388.2" cy="110.1" r="14.1"></circle><circle cx="410.6" cy="107.6" r="12.7"></circle><circle cx="400" cy="102.6" r="16.0"></circle></g>
</svg>